{"glyphs":{"0":{"ha":774,"x_min":-12,"x_max":678,"o":"m 522 692 q 417 851 489 815 q 294 839 360 881 q 176 674 214 789 q 171 351 131 532 q 326 106 215 150 q 401 93 371 89 q 446 114 426 96 q 517 264 492 154 q 538 494 539 364 q 524 676 538 604 q 522 692 521 683 m 660 703 q 676 494 676 618 q 651 233 678 349 q 539 10 618 81 q 275 -22 432 -85 q 107 126 171 19 q 36 321 61 204 q 44 715 -12 539 q 221 957 97 881 q 349 1001 282 996 q 479 976 417 1006 q 657 724 608 911 q 658 704 658 714 l 660 703 z "},"1":{"ha":314,"x_min":53,"x_max":221,"o":"m 194 944 q 204 743 204 858 q 199 538 204 675 q 199 521 199 526 q 194 276 193 360 q 215 58 197 149 q 205 6 221 31 q 161 -24 189 -18 q 109 -13 133 -29 q 79 32 85 3 q 56 274 60 133 q 60 525 54 361 q 60 542 60 532 q 65 743 65 678 q 57 929 65 851 q 71 981 53 958 q 118 1006 89 1003 q 169 990 147 1008 q 194 944 192 972 z "},"2":{"ha":875,"x_min":46,"x_max":783,"o":"m 53 638 q 165 903 64 797 q 386 1014 258 1000 q 614 943 521 1028 q 715 686 715 851 q 617 449 715 544 q 525 379 581 413 q 429 326 493 360 q 426 325 428 325 q 324 267 356 288 q 250 204 276 236 q 233 176 240 190 q 221 144 226 163 q 240 146 231 146 q 400 135 301 150 q 438 128 414 132 q 524 115 499 118 q 593 113 565 111 q 632 121 618 114 q 647 138 642 126 q 687 172 660 163 q 740 169 714 182 q 774 128 765 156 q 771 75 783 101 q 696 -1 746 25 q 601 -26 657 -22 q 508 -22 563 -29 q 415 -8 479 -19 q 379 -3 392 -6 q 249 7 294 10 q 169 -17 196 4 q 119 -33 147 -36 q 72 -7 90 -29 q 61 63 46 25 q 64 83 61 74 q 74 129 67 96 q 110 240 89 200 q 142 289 124 265 q 247 383 181 339 q 363 449 285 408 q 365 450 364 449 q 453 497 425 481 q 519 547 494 522 q 576 686 576 603 q 521 840 576 790 q 401 875 474 883 q 265 807 322 867 q 192 629 199 738 q 169 581 190 600 q 118 564 147 563 q 70 588 89 565 q 53 638 51 610 z "},"3":{"ha":915,"x_min":36,"x_max":833,"o":"m 113 979 q 271 960 167 975 q 326 953 308 956 q 490 940 426 939 q 614 956 558 940 q 658 981 631 976 q 708 971 685 986 q 738 926 732 954 q 726 874 743 899 q 706 843 721 856 q 588 697 654 772 q 514 619 554 660 q 685 544 610 603 q 803 394 772 476 q 803 226 833 311 q 720 100 779 158 q 579 3 661 42 q 417 -47 499 -36 q 264 -39 336 -58 q 128 57 176 -12 q 79 231 79 126 q 99 280 79 260 q 149 300 119 300 q 198 280 178 300 q 218 231 218 260 q 243 135 218 169 q 303 94 264 107 q 403 91 346 82 q 519 128 461 100 q 617 194 576 156 q 672 272 658 232 q 674 344 686 310 q 599 435 657 390 q 456 486 536 483 q 357 461 399 488 q 356 460 356 461 q 353 457 354 458 q 332 443 343 449 q 328 439 329 442 q 279 419 308 419 q 230 440 250 419 q 210 488 210 460 q 229 538 210 517 q 269 571 249 556 q 286 587 276 578 q 304 605 296 596 q 320 622 313 614 q 333 634 328 629 q 339 639 338 639 q 483 790 431 731 q 494 801 489 796 q 492 801 493 801 q 308 815 418 800 q 253 822 289 818 q 103 840 151 838 q 55 865 74 843 q 38 915 36 886 q 63 962 40 943 q 113 979 85 981 z "},"4":{"ha":828,"x_min":25,"x_max":731,"o":"m 454 418 q 456 564 456 475 q 456 593 456 574 q 457 724 456 672 q 349 578 422 675 l 347 576 q 226 414 263 465 q 385 417 288 414 q 454 418 415 417 m 600 957 q 594 592 596 836 q 594 577 594 586 q 594 564 594 568 q 593 422 594 478 q 661 424 643 424 q 710 403 690 424 q 731 355 731 383 q 710 306 731 326 q 661 285 690 285 q 592 283 644 285 q 590 275 590 279 q 593 186 590 247 q 594 160 594 169 q 588 7 599 65 q 558 -37 582 -21 q 506 -47 535 -53 q 462 -17 478 -42 q 451 35 446 7 q 456 153 460 75 q 454 179 456 161 q 451 279 451 246 q 388 278 417 278 q 201 275 269 275 q 76 286 103 275 q 46 306 58 293 q 26 349 29 324 q 32 383 25 367 q 42 403 35 393 q 71 436 50 415 q 81 444 78 442 l 82 446 q 236 661 131 521 l 238 661 q 353 817 315 764 q 450 976 413 903 q 478 1004 460 994 q 533 1029 500 1031 q 582 1008 563 1029 q 600 957 601 986 z "},"5":{"ha":807,"x_min":86,"x_max":719,"o":"m 611 863 q 403 864 532 853 q 369 867 392 864 q 275 874 306 872 q 265 719 271 783 q 257 646 263 681 q 321 665 289 658 q 567 624 456 694 q 710 386 697 539 q 643 136 719 257 q 444 -22 564 14 q 181 43 301 -65 q 117 118 139 79 q 86 228 86 169 q 106 277 86 257 q 155 297 126 297 q 204 277 183 297 q 225 228 225 257 q 274 146 225 189 q 404 111 336 90 q 525 211 475 132 q 571 375 578 293 q 492 507 565 460 q 350 529 429 546 q 211 450 272 513 q 162 431 190 431 q 113 450 133 431 q 93 488 97 467 q 99 529 89 510 q 100 538 100 533 q 126 732 118 624 q 139 932 133 804 q 175 990 142 971 q 226 1014 196 1014 q 381 1004 279 1014 q 414 1001 403 1003 q 594 1000 529 992 q 646 985 624 1003 q 672 940 668 968 q 658 888 675 911 q 611 863 640 865 z "},"6":{"ha":849,"x_min":88,"x_max":756,"o":"m 243 360 q 278 221 251 279 q 422 110 325 119 q 533 124 489 103 q 590 178 569 142 q 612 263 610 214 q 597 361 614 313 q 551 439 581 408 q 483 476 521 469 q 388 464 440 486 q 244 361 319 436 q 243 360 244 360 m 472 879 q 325 753 389 864 q 251 547 274 665 q 511 613 388 639 q 643 542 586 597 q 729 407 700 488 q 751 253 756 333 q 711 110 746 174 q 590 -3 668 33 q 408 -28 511 -39 q 257 30 322 -19 q 153 163 192 79 q 104 494 88 301 q 204 822 122 681 q 447 1015 301 990 q 500 1004 476 1021 q 528 959 524 988 q 517 907 533 931 q 472 879 500 883 z "},"7":{"ha":850,"x_min":10,"x_max":754,"o":"m 735 856 q 474 476 576 686 q 463 454 468 465 q 511 460 488 456 q 563 447 540 464 q 590 401 586 429 q 577 349 594 372 q 531 322 560 326 q 407 313 475 314 q 360 42 360 169 q 340 -7 360 14 q 290 -28 319 -28 q 241 -7 261 -28 q 221 42 221 14 q 261 313 221 172 q 213 313 232 313 q 163 333 183 313 q 143 383 143 354 q 163 431 143 411 q 213 451 183 451 q 286 451 238 451 q 310 451 300 451 q 349 538 328 494 q 511 804 417 676 q 367 813 447 804 q 209 833 308 818 q 74 853 110 847 q 27 878 44 856 q 13 930 10 901 q 39 976 17 958 q 90 990 61 993 q 231 971 129 986 q 381 950 326 956 q 643 960 543 933 q 688 972 663 974 q 732 954 714 971 q 753 906 753 935 q 735 856 754 876 z "},"8":{"ha":814,"x_min":-15,"x_max":732,"o":"m 357 1021 q 428 1025 390 1044 q 640 833 610 935 q 632 717 658 775 q 569 631 614 675 q 514 582 546 608 q 586 542 554 564 q 713 344 696 467 q 669 97 732 197 q 557 -10 626 26 q 404 -42 488 -46 q 242 -1 313 -37 q 110 122 154 40 q 119 417 29 274 q 211 522 151 468 q 224 535 218 528 q 192 547 207 540 q 90 607 128 574 q 44 860 -15 701 q 98 945 63 908 q 178 1000 133 982 q 357 1021 275 1039 m 382 483 q 304 419 335 447 q 236 343 260 379 q 232 188 189 268 q 411 97 278 104 q 551 169 504 92 q 575 326 588 228 q 508 426 567 388 q 382 483 467 456 m 381 860 q 310 888 343 885 q 229 871 276 890 q 175 810 192 857 q 164 742 158 768 q 183 711 167 725 q 244 675 203 693 q 343 642 276 663 q 357 638 346 640 q 404 674 393 664 q 471 729 447 706 q 506 774 497 756 q 507 792 510 785 q 476 832 503 808 q 447 854 464 843 q 381 860 413 839 z "},"9":{"ha":738,"x_min":29,"x_max":642,"o":"m 446 846 q 426 872 440 867 q 358 881 408 881 q 234 832 288 881 q 175 715 181 783 q 207 568 171 636 q 288 483 239 508 q 364 481 328 464 q 446 589 413 503 q 458 678 457 617 q 460 700 458 685 q 463 771 460 747 q 469 810 465 792 q 446 846 453 824 m 635 956 q 638 746 635 889 q 640 533 640 607 q 604 58 642 244 q 574 13 599 29 q 522 3 550 -3 q 478 33 494 10 q 468 85 463 57 q 500 413 496 222 q 424 354 465 375 q 225 360 326 308 q 83 503 136 404 q 38 724 29 606 q 139 933 44 847 q 358 1019 233 1019 q 483 1000 438 1019 q 504 989 494 994 q 565 1025 524 1025 q 615 1005 594 1025 q 635 956 635 985 z "}," ":{"ha":417,"x_min":0,"x_max":0,"o":""},"A":{"ha":1218,"x_min":101,"x_max":1125,"o":"m 839 99 q 857 111 847 101 q 906 204 879 131 q 951 385 928 272 q 983 554 963 436 q 1013 599 989 583 q 1064 610 1036 615 q 1108 582 1092 606 q 1119 531 1125 558 q 1088 357 1099 411 q 1036 160 1063 236 q 949 6 999 50 q 833 -42 892 -43 q 728 8 775 -40 q 633 210 671 69 q 617 278 625 242 q 588 178 604 224 q 497 18 553 83 q 417 -32 467 -17 q 342 -42 383 -42 q 238 -6 283 -42 q 172 74 199 24 q 115 279 132 151 q 103 493 101 376 q 111 646 104 585 q 209 903 132 797 q 389 1029 286 1008 q 585 964 504 1053 q 588 981 586 972 q 611 1023 592 1007 q 656 1039 631 1039 q 667 1038 661 1039 q 709 1014 693 1033 q 725 969 725 994 q 724 958 725 964 q 714 731 710 874 q 714 699 714 719 q 717 592 717 628 q 728 456 717 547 q 767 246 743 336 q 829 104 796 139 q 838 97 833 100 l 839 99 m 526 565 q 533 643 533 608 q 529 748 532 678 q 482 869 526 818 q 417 893 456 901 q 321 821 367 883 q 250 626 265 744 q 242 492 243 575 q 253 297 240 385 q 294 139 267 193 q 321 104 308 115 q 342 97 331 97 q 392 110 382 97 q 494 375 461 190 q 514 490 500 406 q 526 565 521 538 z "},"B":{"ha":929,"x_min":86,"x_max":844,"o":"m 329 278 q 400 275 365 297 q 429 230 424 258 q 419 178 435 201 q 396 119 403 154 q 393 90 393 103 q 394 83 393 86 l 396 81 q 417 54 407 63 q 428 50 422 50 q 475 71 444 49 q 556 165 514 103 q 631 306 597 226 q 692 613 703 479 q 663 711 688 675 q 593 754 639 744 q 450 715 507 774 q 360 525 392 656 q 329 278 332 415 m 233 972 q 247 638 228 831 q 350 813 288 749 q 624 890 461 926 q 776 790 721 868 q 831 624 822 724 q 758 251 844 456 q 560 -39 675 51 q 413 -87 485 -96 q 311 -36 356 -82 q 292 -43 301 -42 q 278 -44 285 -44 q 234 -29 253 -44 q 210 11 215 -14 q 129 464 157 271 q 94 978 86 768 q 117 1026 96 1007 q 167 1044 138 1046 q 215 1022 196 1043 q 233 972 235 1001 z "},"C":{"ha":1063,"x_min":147,"x_max":971,"o":"m 535 635 q 540 765 551 706 q 492 853 531 828 q 425 871 453 879 q 367 819 396 863 q 313 688 333 769 q 292 514 293 606 q 367 197 288 311 q 592 125 444 83 q 728 254 656 143 q 829 488 801 367 q 860 531 836 515 q 913 540 885 546 q 956 509 940 533 q 965 457 971 485 q 844 178 931 311 q 631 -8 743 24 q 412 -8 508 -42 q 251 118 315 25 q 153 517 147 269 q 180 728 154 628 q 251 896 206 828 q 386 1004 308 982 q 569 969 476 1031 q 678 789 657 910 q 671 604 693 703 q 640 561 664 576 q 588 552 615 546 q 544 583 560 558 q 535 635 529 607 z "},"D":{"ha":1138,"x_min":3,"x_max":1046,"o":"m 458 583 q 431 647 457 611 q 372 700 406 682 q 322 703 350 713 q 254 658 292 692 q 214 618 240 646 q 173 526 193 597 q 146 378 153 456 q 152 241 139 296 q 194 158 165 186 q 268 114 228 129 q 340 103 308 99 q 394 136 372 108 q 439 265 428 179 q 461 569 460 411 q 458 583 460 576 m 625 976 q 624 925 625 956 q 623 909 624 921 q 622 886 622 897 l 622 874 q 617 654 618 735 q 643 226 614 369 q 685 104 658 143 q 719 78 701 78 q 742 89 729 78 q 782 144 763 106 q 854 365 819 217 q 881 479 864 404 q 904 583 896 551 q 935 626 911 611 q 988 633 960 640 q 1031 602 1015 626 q 1039 550 1046 578 q 1015 449 1032 519 q 990 333 999 372 q 906 82 950 168 q 833 -17 874 18 q 714 -61 781 -62 q 568 28 624 -58 q 533 99 549 58 q 504 51 521 72 q 363 -33 449 -19 q 217 -15 293 -44 q 101 56 153 10 q 17 218 39 113 q 7 404 3 301 q 93 725 17 646 q 160 785 122 756 q 254 833 199 814 q 439 822 340 864 q 481 794 461 810 q 483 878 482 829 l 483 889 q 484 913 483 900 q 485 929 485 925 q 486 979 486 958 q 508 1028 488 1008 q 558 1047 529 1049 q 606 1025 586 1046 q 625 976 626 1004 z "},"E":{"ha":1044,"x_min":158,"x_max":949,"o":"m 321 622 q 488 636 426 597 q 554 740 540 668 q 544 863 569 810 q 525 889 535 882 q 511 892 518 893 q 376 785 432 882 q 321 622 339 717 m 307 483 q 344 246 306 349 q 442 117 382 143 q 571 118 508 88 q 692 236 633 150 q 779 419 746 315 q 810 579 810 513 q 830 628 810 608 q 879 649 850 649 q 928 628 908 649 q 949 579 949 608 q 909 369 949 488 q 807 158 869 251 q 633 -6 729 42 q 386 -11 513 -67 q 207 215 264 43 q 171 540 158 363 q 256 853 183 724 q 494 1031 344 1011 q 604 1003 554 1038 q 669 922 646 974 q 690 713 714 826 q 563 518 664 582 q 307 483 458 453 z "},"F":{"ha":711,"x_min":118,"x_max":617,"o":"m 431 349 q 332 335 367 339 q 285 331 307 332 q 356 92 314 154 q 365 40 371 68 q 336 -5 360 11 q 284 -15 313 -21 q 239 14 256 -10 q 170 196 199 75 q 129 467 142 317 q 126 724 118 607 q 168 922 135 856 q 239 992 189 964 q 311 1021 272 1011 q 485 997 410 1044 q 578 875 544 957 q 610 732 601 814 q 614 603 617 669 q 592 554 613 574 q 542 536 571 535 q 493 558 513 538 q 475 608 474 579 q 449 824 481 740 q 408 881 432 865 q 344 885 385 896 q 307 871 324 881 q 294 863 299 867 q 292 860 293 861 q 265 713 271 818 q 268 478 258 607 q 268 468 268 472 q 408 485 314 471 q 460 473 438 490 q 488 427 483 456 q 476 376 493 399 q 431 349 458 353 z "},"G":{"ha":1053,"x_min":51,"x_max":963,"o":"m 339 94 q 346 90 342 92 q 378 85 360 85 q 464 103 424 82 q 515 158 503 124 q 522 181 518 169 q 515 180 518 181 q 508 178 511 179 q 502 177 504 178 q 499 176 500 176 l 497 176 q 390 146 422 158 q 349 117 357 132 q 340 100 343 107 q 339 94 339 97 m 650 904 q 672 790 668 885 q 678 590 675 696 q 681 441 681 485 q 681 374 682 397 q 726 400 706 386 q 822 518 793 444 q 858 556 832 544 q 912 558 885 568 q 951 521 939 547 q 951 468 963 494 q 804 285 907 353 q 671 221 749 247 q 646 114 663 164 q 528 -19 617 26 q 371 -54 454 -58 q 228 10 274 -50 q 200 97 199 49 q 229 189 201 142 q 338 274 261 243 q 467 311 381 292 l 472 313 q 483 315 476 314 q 497 318 489 317 q 511 322 504 319 q 522 324 518 324 q 542 328 532 326 q 542 367 542 346 q 542 444 543 393 q 542 497 542 479 q 542 511 542 506 q 427 434 490 461 q 300 408 364 407 q 170 451 225 411 q 94 560 115 490 q 176 907 51 701 q 273 1006 214 967 q 397 1054 332 1046 q 536 1032 472 1064 q 640 932 600 1000 q 650 904 649 919 m 521 863 q 415 915 483 925 q 349 890 381 911 q 296 833 317 868 q 229 685 244 751 q 228 599 217 633 q 304 547 242 549 q 450 617 383 544 q 531 849 531 703 q 521 863 525 854 z "},"H":{"ha":1013,"x_min":68,"x_max":921,"o":"m 235 964 q 231 644 217 851 q 301 747 260 696 q 379 828 342 797 q 450 869 415 858 q 535 867 494 885 q 594 814 571 851 q 621 750 610 789 q 643 597 636 694 q 651 422 647 543 q 658 264 654 314 q 674 142 663 185 q 682 111 678 124 q 690 125 686 117 q 725 189 707 149 q 779 329 760 263 q 813 371 788 357 q 865 376 838 385 q 907 343 893 368 q 913 290 921 318 q 851 131 890 214 q 808 50 829 82 q 744 -17 776 1 q 597 -7 661 -62 q 538 110 557 29 q 519 254 525 165 q 513 418 515 307 q 506 588 508 535 q 488 713 499 669 q 481 731 485 724 q 468 721 475 726 q 389 633 432 690 q 332 536 346 575 q 301 326 307 468 q 333 64 294 157 q 339 36 339 50 q 328 -2 339 15 q 297 -28 317 -19 q 269 -33 283 -33 q 231 -22 249 -33 q 206 8 214 -11 q 203 14 204 11 q 108 468 146 156 q 99 986 68 806 q 126 1032 103 1015 q 178 1044 150 1049 q 224 1015 207 1039 q 235 964 240 992 z "},"I":{"ha":731,"x_min":117,"x_max":639,"o":"m 251 890 q 199 888 225 879 q 156 918 174 897 q 128 963 138 939 q 122 1013 117 988 q 142 1056 126 1038 q 180 1083 158 1075 q 224 1088 201 1092 q 258 1071 242 1083 q 275 1054 268 1064 q 301 1007 296 1031 q 301 950 307 972 q 288 919 297 935 q 251 890 279 903 m 286 781 q 269 614 276 721 q 264 364 260 476 q 297 153 271 225 q 324 107 310 119 q 335 103 328 103 q 353 113 343 103 q 388 160 371 128 q 456 338 419 217 q 477 418 460 354 q 497 490 494 482 q 531 531 506 517 q 583 538 556 546 q 625 504 611 529 q 631 451 639 479 q 611 380 629 444 q 589 299 593 315 q 510 92 549 164 q 446 8 481 39 q 343 -36 399 -32 q 228 7 278 -40 q 167 104 190 42 q 126 357 133 197 q 131 624 121 479 q 150 804 139 739 q 178 849 156 833 q 230 860 201 865 q 275 832 258 856 q 286 781 292 808 z "},"J":{"ha":700,"x_min":97,"x_max":607,"o":"m 372 1042 q 408 1005 382 1019 q 460 992 433 990 q 494 1004 478 993 q 515 1024 506 1011 q 460 1232 596 1167 q 368 1181 411 1222 q 372 1042 347 1092 m 547 892 q 556 825 547 879 q 560 798 556 822 q 564 767 564 774 q 575 699 571 729 q 599 475 592 572 q 600 276 607 363 q 565 101 593 171 q 446 -19 525 7 q 253 7 363 -47 q 129 132 168 50 q 100 286 97 199 q 175 550 104 419 q 244 578 189 575 q 297 483 299 581 q 239 282 243 382 q 314 132 236 171 q 372 111 347 115 q 401 113 390 108 q 438 156 422 119 q 460 465 475 247 q 438 679 454 557 q 428 747 432 711 q 423 777 426 753 q 418 804 419 801 q 408 886 410 867 q 449 936 407 915 q 547 892 490 957 z "},"K":{"ha":936,"x_min":46,"x_max":846,"o":"m 631 919 q 464 629 579 753 q 321 510 400 561 q 315 507 318 508 q 407 351 351 442 q 560 122 503 196 q 604 156 579 132 q 667 232 639 189 q 704 310 694 275 q 736 352 711 338 q 789 359 761 367 q 831 326 817 351 q 838 274 846 301 q 786 161 824 221 q 701 56 749 101 q 599 -12 649 6 q 531 -19 564 -25 q 463 19 489 -12 q 289 279 403 94 q 221 392 250 342 q 263 61 233 232 q 250 10 267 33 q 205 -19 233 -14 q 153 -7 176 -24 q 125 38 129 10 q 86 961 46 513 q 111 1008 89 989 q 162 1024 133 1026 q 208 999 190 1021 q 224 949 226 976 q 211 607 208 775 q 246 628 231 618 q 363 724 310 669 q 497 961 456 824 q 531 1001 506 988 q 585 1006 557 1015 q 626 972 613 997 q 631 919 639 947 z "},"L":{"ha":743,"x_min":107,"x_max":653,"o":"m 256 961 q 254 919 256 950 l 253 892 q 253 857 253 872 q 253 514 246 657 q 299 208 263 315 q 340 132 318 154 q 364 118 353 118 l 365 118 q 376 129 369 122 q 417 196 394 151 q 511 449 456 275 q 547 488 521 475 q 599 493 572 501 q 640 459 626 485 q 644 406 653 433 q 542 136 585 222 q 481 38 513 74 q 382 -19 436 -14 q 240 35 300 -28 q 168 164 196 81 q 114 507 125 289 q 114 861 107 657 q 115 896 114 876 q 115 925 115 921 q 117 961 117 953 q 137 1010 117 990 q 186 1031 157 1031 q 235 1010 215 1031 q 256 961 256 990 z "},"M":{"ha":1482,"x_min":54,"x_max":1390,"o":"m 194 971 q 200 696 200 882 q 200 692 200 694 q 200 688 200 689 q 260 872 226 797 q 326 974 290 935 q 433 1032 374 1022 q 553 989 503 1044 q 606 888 585 953 q 629 786 619 844 q 663 882 644 840 q 707 964 683 932 q 778 1025 739 1008 q 950 1014 879 1068 q 1024 874 1004 972 q 1038 696 1038 806 q 1032 496 1039 628 q 1032 481 1032 490 q 1025 310 1026 364 q 1031 171 1024 224 q 1049 96 1036 117 l 1050 96 q 1057 100 1053 97 q 1089 136 1072 111 q 1161 278 1124 186 q 1218 439 1190 350 q 1249 544 1238 499 q 1280 588 1256 572 q 1333 596 1304 603 q 1376 564 1361 589 q 1383 511 1390 539 q 1351 399 1371 461 q 1290 225 1322 303 q 1203 57 1247 119 q 1143 -8 1174 15 q 1057 -44 1103 -42 q 931 25 975 -50 q 892 156 901 71 q 886 313 885 217 q 893 486 888 368 q 893 503 893 497 q 899 696 900 631 q 888 846 899 792 q 875 890 882 874 q 865 904 869 901 q 861 906 864 904 q 833 897 851 906 q 829 894 832 897 q 819 882 825 890 q 790 828 804 863 q 738 650 761 761 q 689 319 696 464 q 692 235 688 296 q 694 196 693 210 q 693 110 696 144 q 672 19 689 57 q 660 1 668 10 q 621 -22 644 -17 q 569 -11 593 -26 q 550 7 558 -4 q 539 32 543 18 q 533 57 536 42 q 531 78 532 65 q 528 97 529 82 q 526 113 526 111 q 519 225 519 151 l 519 226 q 517 300 519 276 q 514 388 515 321 q 507 622 511 544 q 474 846 497 771 q 450 894 463 881 q 426 876 440 890 q 386 813 406 856 q 321 583 347 729 q 289 322 300 467 q 281 143 281 218 l 281 142 l 281 140 q 281 138 281 139 q 281 133 281 136 l 281 131 q 282 122 282 126 q 282 99 282 108 q 282 60 283 75 q 278 36 281 47 q 269 17 275 25 q 231 -15 256 -7 q 176 -12 203 -25 q 142 31 150 1 l 140 35 q 138 46 139 39 l 126 82 l 117 117 l 113 129 q 111 133 111 132 q 111 135 111 133 q 72 364 83 236 q 63 594 63 458 q 61 696 61 628 q 56 963 61 876 q 73 1013 54 990 q 120 1036 92 1035 q 171 1019 149 1038 q 194 971 193 1000 z "},"N":{"ha":1151,"x_min":71,"x_max":1060,"o":"m 754 111 q 764 125 758 117 q 794 182 779 146 q 918 614 868 356 q 947 658 924 642 q 999 668 971 674 q 1044 639 1028 663 q 1054 588 1060 615 q 922 129 1001 315 q 822 -11 879 25 q 747 -33 785 -35 q 675 -4 708 -31 q 606 94 632 28 q 574 242 579 161 q 572 300 572 261 q 574 336 572 314 q 574 349 574 339 q 574 367 574 358 q 575 376 575 375 q 576 560 579 490 q 553 758 574 688 q 526 814 542 794 q 507 829 517 826 q 375 800 426 851 q 289 638 326 753 q 269 576 279 611 l 251 515 q 240 324 235 456 q 246 228 242 288 q 254 85 254 118 q 249 25 254 49 q 235 -10 244 6 q 182 -44 215 -39 q 121 -31 149 -51 q 96 4 104 -17 q 88 49 90 21 q 83 168 85 76 q 81 393 82 310 q 78 639 79 482 q 76 778 76 731 q 72 919 75 854 q 90 969 71 949 q 138 992 110 990 q 188 974 167 993 q 211 925 210 954 q 214 815 213 872 q 276 899 243 864 q 543 964 385 1006 q 638 897 599 949 q 685 799 667 858 q 715 564 711 710 q 714 371 718 490 q 711 251 710 269 q 732 153 715 197 q 754 111 742 126 z "},"O":{"ha":1194,"x_min":174,"x_max":1065,"o":"m 646 631 q 560 801 606 740 q 449 890 515 861 q 350 728 382 854 q 339 424 315 589 q 433 165 364 258 q 578 104 496 83 q 679 196 649 121 q 700 397 711 274 q 646 631 689 514 m 744 756 q 838 410 822 590 q 807 143 851 253 q 611 -32 750 4 q 453 -23 528 -53 q 322 82 379 7 q 201 404 231 203 q 215 761 174 597 q 396 1018 265 958 q 468 1010 435 1036 q 492 1014 479 1014 l 499 1014 l 506 1014 q 525 1011 515 1014 q 574 993 549 1004 q 626 968 597 983 q 653 954 638 961 q 667 946 656 951 l 678 940 q 756 900 726 913 q 831 876 796 882 q 1022 894 928 853 q 1063 867 1060 883 q 1058 813 1065 850 q 1026 764 1050 775 q 806 740 921 714 q 744 756 775 747 z "},"P":{"ha":846,"x_min":104,"x_max":774,"o":"m 296 261 q 326 61 307 151 q 328 47 328 54 q 313 3 328 22 q 272 -21 297 -15 q 258 -22 265 -22 q 215 -7 233 -22 q 190 33 196 8 q 133 481 156 203 q 106 978 118 676 q 124 1028 104 1007 q 172 1050 143 1049 q 222 1032 201 1051 q 244 983 243 1013 q 247 919 246 950 q 507 1039 342 1054 q 644 965 586 1032 q 713 849 688 918 q 735 510 774 678 q 610 268 701 368 q 418 169 514 164 q 315 225 353 172 q 296 261 304 242 m 426 308 q 454 318 438 310 q 508 363 481 333 q 600 542 575 435 q 582 801 629 669 q 542 872 565 846 q 493 900 519 899 q 357 836 406 908 q 292 606 307 760 q 288 367 281 500 q 313 399 296 386 q 353 411 331 411 q 402 391 382 411 q 422 342 422 371 q 425 314 422 325 q 426 308 426 311 z "},"Q":{"ha":1065,"x_min":144,"x_max":974,"o":"m 713 36 q 461 -40 611 -71 q 314 26 371 -22 q 215 165 257 75 q 153 396 168 267 q 144 622 144 474 q 197 865 144 764 q 381 1026 260 985 q 392 1029 386 1028 q 428 1039 408 1039 q 596 989 519 1039 q 728 846 672 939 q 832 471 821 689 q 786 156 842 290 q 864 94 828 119 q 901 71 885 79 q 913 64 907 67 l 914 64 q 958 33 943 57 q 967 -19 974 8 q 935 -62 960 -47 q 883 -72 911 -78 q 783 -19 846 -64 q 713 36 750 6 m 426 894 q 321 801 357 871 q 283 622 283 729 q 292 413 283 482 q 340 224 304 304 q 401 135 369 163 q 489 96 433 107 q 610 131 563 81 q 488 289 519 224 q 485 342 475 315 q 520 382 494 369 q 573 385 546 394 q 613 350 600 375 q 676 264 628 317 q 693 464 699 354 q 608 775 685 647 q 438 900 538 894 q 426 894 432 897 z "},"R":{"ha":846,"x_min":97,"x_max":756,"o":"m 239 961 q 239 844 239 924 q 238 833 238 839 q 346 956 282 900 q 572 1019 465 1058 q 657 958 619 1003 q 707 871 686 922 q 749 676 742 786 q 732 504 756 567 q 695 465 721 476 q 642 463 669 453 q 603 500 615 474 q 601 553 592 526 q 610 665 615 588 q 578 819 604 753 q 525 890 553 879 q 499 889 514 893 q 438 850 472 881 q 303 651 342 767 q 275 314 260 519 q 299 206 276 289 q 304 183 300 194 q 317 136 310 163 q 322 115 318 131 q 328 96 326 99 q 335 69 332 76 q 336 64 335 67 q 338 50 338 57 q 336 36 338 43 q 331 21 335 31 q 324 7 328 14 q 308 -8 318 0 q 296 -15 303 -11 q 283 -19 290 -18 q 269 -21 276 -21 q 257 -21 263 -21 q 239 -15 246 -18 q 228 -8 232 -11 q 211 8 218 -1 q 204 18 207 13 q 203 22 204 21 q 128 289 153 140 q 101 567 107 411 q 100 846 97 661 q 100 961 100 924 q 120 1010 100 990 q 169 1031 140 1031 q 219 1010 199 1031 q 239 961 239 990 z "},"S":{"ha":903,"x_min":72,"x_max":847,"o":"m 546 672 q 521 815 565 761 q 410 874 482 865 q 282 842 336 882 q 215 708 222 797 q 268 622 213 657 q 350 585 299 604 q 457 551 383 574 q 461 550 458 551 q 593 508 550 524 q 714 443 668 479 q 788 161 847 339 q 632 -19 744 32 q 425 -32 533 -64 q 267 93 315 1 q 271 319 211 199 q 312 353 285 344 q 365 350 339 363 q 399 310 390 338 q 396 257 408 282 q 389 158 367 200 q 465 101 411 118 q 575 107 524 83 q 657 206 632 133 q 664 286 674 256 q 629 333 657 313 q 543 378 599 357 q 422 417 504 393 q 418 418 419 418 q 303 454 340 442 q 194 504 238 478 q 107 589 138 540 q 78 718 72 647 q 199 953 88 871 q 425 1011 297 1025 q 629 903 554 997 q 682 644 714 797 q 652 600 676 615 q 599 590 628 585 q 556 620 571 596 q 546 672 540 644 z "},"T":{"ha":981,"x_min":153,"x_max":888,"o":"m 583 789 q 532 783 567 788 q 467 775 489 778 q 467 501 463 626 q 518 142 475 249 q 539 103 528 117 q 546 96 543 97 q 549 94 547 94 q 554 96 550 94 q 590 119 569 100 q 689 331 642 164 q 746 617 719 442 q 774 661 751 644 q 826 674 797 678 q 871 647 854 669 q 883 594 888 624 q 822 293 856 413 q 767 138 797 201 q 682 14 729 54 q 597 -36 638 -24 q 501 -36 547 -53 q 431 17 461 -22 q 389 90 407 46 q 328 497 338 219 q 328 769 324 622 q 206 793 263 774 q 166 827 179 801 q 162 880 153 853 q 197 920 171 907 q 250 924 222 933 q 333 908 288 911 l 336 972 q 356 1022 336 1001 q 406 1042 376 1042 q 455 1022 435 1042 q 475 972 475 1001 q 472 915 475 968 q 514 921 488 918 q 567 928 550 925 q 618 913 596 931 q 644 866 640 894 q 629 815 647 838 q 583 789 611 793 z "},"U":{"ha":1228,"x_min":122,"x_max":1135,"o":"m 264 871 q 318 221 263 385 q 371 136 340 158 q 443 121 396 119 q 460 129 450 122 q 490 168 475 140 q 554 347 525 229 q 625 867 599 533 l 625 872 q 645 921 625 900 q 694 942 665 942 q 743 921 722 942 q 764 872 764 900 l 764 865 l 764 863 q 763 739 764 814 q 761 621 761 654 q 769 401 763 513 q 799 183 778 264 q 829 104 813 129 q 835 96 832 99 l 836 94 q 847 103 840 97 q 883 154 865 119 q 946 350 918 222 q 975 501 961 415 q 985 564 978 515 q 993 617 993 613 q 1021 663 997 646 q 1073 674 1044 679 q 1118 646 1101 669 q 1131 594 1135 622 q 1122 542 1129 590 q 1113 479 1114 494 q 1082 319 1097 389 q 1007 90 1049 175 q 942 1 978 33 q 835 -44 893 -43 q 760 -22 794 -44 q 713 28 733 -4 q 664 150 683 74 q 654 194 658 171 q 610 99 633 139 q 546 21 582 49 q 449 -17 501 -15 q 287 26 351 -21 q 188 176 222 72 q 125 872 122 361 q 145 922 125 901 q 194 942 165 942 q 244 921 224 942 q 264 871 264 900 z "},"V":{"ha":1272,"x_min":49,"x_max":1163,"o":"m 190 971 q 361 522 229 847 q 481 238 424 368 q 561 496 510 329 q 565 510 564 504 q 589 583 568 515 q 631 718 610 650 q 658 810 651 786 q 690 908 679 876 q 700 939 697 928 q 704 950 703 946 q 707 954 706 951 q 751 994 719 985 q 769 994 763 994 q 804 986 788 994 q 822 975 814 982 q 839 958 831 968 q 850 946 844 953 q 854 939 853 942 q 867 900 867 921 q 922 685 867 749 q 957 663 938 667 q 990 661 976 658 q 1019 675 1004 664 q 1044 694 1035 686 q 1056 705 1053 703 q 1070 719 1058 707 q 1122 727 1082 732 q 1158 669 1163 722 q 1138 597 1154 615 q 1107 567 1121 578 q 1101 563 1104 565 q 1042 524 1061 532 q 911 526 978 500 q 817 593 857 547 q 764 682 785 631 q 738 595 753 646 q 711 510 722 544 q 699 468 700 475 q 694 454 694 456 q 600 156 632 254 q 567 58 578 92 q 553 28 558 39 q 542 8 547 17 q 531 -1 536 3 q 503 -15 518 -11 q 450 -7 475 -22 q 424 24 432 4 q 232 469 358 158 q 57 929 99 800 q 62 983 49 957 q 103 1017 75 1008 q 156 1012 131 1025 q 190 971 181 999 z "},"W":{"ha":1356,"x_min":85,"x_max":1264,"o":"m 236 925 q 235 885 236 910 l 235 881 q 234 871 235 876 q 233 860 233 865 q 233 849 233 854 q 232 840 232 843 q 229 540 224 654 q 346 140 243 243 q 362 126 356 131 q 372 119 368 122 q 375 117 374 118 q 403 161 389 128 q 440 300 424 213 q 478 915 478 513 q 478 933 478 924 q 498 983 478 963 q 547 1003 518 1003 q 597 983 576 1003 q 617 933 617 963 q 617 914 617 924 q 650 393 618 713 q 658 314 653 369 q 667 238 664 265 q 688 173 669 204 q 731 124 706 142 q 765 111 750 111 q 786 124 776 111 q 874 482 871 221 q 861 750 875 589 q 857 797 861 753 q 851 851 853 842 q 847 931 847 904 q 847 933 847 932 q 847 939 847 936 q 867 988 847 968 q 917 1008 888 1008 q 966 988 946 1008 q 986 939 986 968 q 999 865 986 911 q 1039 767 1014 810 q 1096 706 1065 722 q 1167 701 1126 689 q 1220 698 1194 711 q 1255 658 1246 685 q 1251 605 1264 631 q 1211 571 1238 579 q 1031 583 1114 538 q 1011 594 1021 588 q 1013 481 1014 535 q 989 240 1011 342 q 892 32 958 108 q 769 -28 842 -25 q 653 10 710 -29 q 546 149 579 60 q 463 8 514 50 q 349 -19 411 -33 q 274 18 311 -11 q 249 43 263 28 q 129 267 168 122 q 90 533 99 378 q 93 847 85 654 q 94 856 94 850 q 94 867 94 861 q 95 878 94 872 q 96 887 96 883 q 96 892 96 890 q 97 931 97 915 q 120 979 99 960 q 170 997 142 999 q 218 975 199 996 q 236 925 238 954 z "},"X":{"ha":828,"x_min":54,"x_max":733,"o":"m 669 893 q 582 717 643 842 q 522 595 572 697 q 463 474 472 493 q 461 469 461 472 q 439 426 450 447 q 704 110 568 218 q 731 63 728 92 q 715 13 733 35 q 669 -13 697 -10 q 618 1 640 -17 q 368 282 489 104 q 231 10 254 51 q 189 -23 217 -15 q 136 -17 161 -31 q 103 25 111 -3 q 110 78 94 53 q 281 419 133 122 q 274 433 278 426 q 63 915 142 667 q 67 969 54 943 q 108 1003 81 994 q 160 998 135 1011 q 194 958 186 985 q 356 572 257 764 q 391 644 367 594 q 433 728 415 693 q 457 778 450 764 q 544 956 519 903 q 585 990 557 981 q 638 986 613 999 q 673 946 664 974 q 669 893 682 918 z "},"Y":{"ha":1072,"x_min":89,"x_max":981,"o":"m 390 122 q 393 121 392 122 q 418 121 404 119 q 493 158 458 126 q 554 260 535 197 q 544 256 547 257 q 444 200 475 224 q 393 133 407 172 q 390 122 390 128 m 253 926 q 288 526 231 642 q 324 483 306 492 q 358 486 338 478 q 425 538 390 499 q 488 632 460 576 q 550 913 553 763 q 550 922 550 918 q 550 925 550 924 q 568 975 549 954 q 617 997 588 996 q 667 979 646 999 q 689 931 688 960 q 689 911 689 921 q 690 629 696 688 q 689 569 689 604 q 693 493 689 542 q 790 575 750 533 q 840 647 829 617 q 874 688 849 675 q 927 692 900 701 q 967 658 954 683 q 972 604 981 632 q 849 439 946 525 q 703 335 785 382 q 689 229 703 276 q 586 56 660 122 q 438 -17 519 -4 q 293 22 347 -29 q 253 94 261 51 q 263 183 246 138 q 360 311 292 258 q 488 382 403 344 q 512 393 490 383 q 539 406 533 403 q 561 415 551 411 q 557 453 560 428 q 556 478 556 467 q 408 357 488 388 q 269 356 335 328 q 164 464 203 385 q 114 938 89 614 q 138 984 117 965 q 188 1001 160 1003 q 235 976 217 999 q 253 926 254 954 z "},"Z":{"ha":861,"x_min":21,"x_max":765,"o":"m 90 1001 q 274 996 150 1001 q 329 993 311 993 q 578 994 489 986 q 581 996 579 994 q 589 998 582 996 q 597 1000 596 1000 q 606 1003 601 1001 q 637 1010 624 1008 q 661 1011 650 1013 q 681 1007 671 1010 q 708 990 696 1001 q 728 951 724 974 q 728 925 731 939 q 721 901 726 914 q 708 883 715 893 q 704 878 706 881 q 696 869 700 874 q 694 867 696 868 q 633 790 674 840 l 632 790 q 526 651 557 699 q 461 531 496 607 q 396 379 439 482 q 392 371 394 375 q 294 153 331 219 q 286 138 290 144 q 404 128 332 136 q 439 125 417 126 q 586 113 546 113 q 633 117 615 113 q 644 121 640 119 q 649 124 647 122 q 699 141 669 143 q 747 117 728 139 q 764 67 765 96 q 740 19 763 39 q 665 -18 711 -7 q 588 -26 632 -26 q 422 -14 539 -26 q 389 -10 401 -11 q 251 -1 300 0 q 169 -21 194 -4 q 117 -31 144 -37 q 72 -1 89 -25 q 72 1 72 0 q 69 3 71 1 q 58 55 53 26 q 86 100 63 83 q 172 217 125 128 q 264 424 204 279 q 265 428 264 425 q 268 432 267 431 q 335 589 311 538 q 410 729 375 675 q 503 851 443 778 q 324 854 432 849 q 268 857 304 854 q 90 863 147 863 q 41 883 61 863 q 21 932 21 903 q 41 981 21 961 q 90 1001 61 1001 z "},"a":{"ha":1218,"x_min":103,"x_max":1125,"o":"m 839 143 q 857 156 847 146 q 906 249 879 175 q 951 429 931 317 q 983 599 961 481 q 1013 644 989 628 q 1064 655 1036 660 q 1108 626 1092 650 q 1119 575 1125 603 q 1088 401 1096 456 q 1036 204 1063 281 q 949 50 1000 93 q 833 3 892 1 q 728 53 775 4 q 633 254 669 114 q 617 322 625 286 q 588 222 603 268 q 497 63 556 125 q 417 13 467 29 q 342 3 383 1 q 238 39 285 4 q 172 118 199 68 q 115 324 132 196 q 103 538 103 421 q 111 690 103 629 q 209 947 132 842 q 389 1074 286 1053 q 585 1008 504 1097 q 588 1025 586 1017 q 611 1067 592 1051 q 656 1083 631 1083 q 667 1082 661 1083 q 709 1058 693 1078 q 725 1014 725 1039 q 724 1003 725 1008 q 714 775 710 918 q 714 743 714 764 q 717 636 717 672 q 728 500 717 592 q 767 290 742 381 q 829 149 794 183 q 838 142 833 144 l 839 143 m 526 610 q 533 688 533 653 q 530 793 532 722 q 482 914 528 864 q 417 938 456 943 q 321 865 364 931 q 250 671 271 789 q 242 536 242 619 q 253 342 242 429 q 294 183 267 238 q 321 149 308 160 q 342 142 331 142 q 392 154 382 142 q 494 419 453 236 q 514 535 501 450 q 526 610 521 582 z "},"b":{"ha":929,"x_min":86,"x_max":844,"o":"m 329 278 q 400 275 365 297 q 429 230 424 258 q 419 178 435 201 q 396 119 403 154 q 393 90 393 103 q 394 83 393 86 l 396 81 q 417 54 407 63 q 428 50 422 50 q 475 71 444 49 q 556 165 514 103 q 631 306 597 226 q 692 613 703 479 q 663 711 688 675 q 593 754 639 744 q 450 715 507 774 q 360 525 392 656 q 329 278 332 415 m 233 972 q 247 638 228 831 q 350 813 288 749 q 624 890 461 926 q 776 790 721 868 q 831 624 822 724 q 758 251 844 456 q 560 -39 675 51 q 413 -87 485 -96 q 311 -36 356 -82 q 292 -43 301 -42 q 278 -44 285 -44 q 234 -29 253 -44 q 210 11 215 -14 q 129 464 157 271 q 94 978 86 768 q 117 1026 96 1007 q 167 1044 138 1046 q 215 1022 196 1043 q 233 972 235 1001 z "},"c":{"ha":1063,"x_min":151,"x_max":971,"o":"m 535 657 q 540 788 553 728 q 492 875 531 849 q 425 893 453 901 q 367 842 396 885 q 313 710 333 792 q 292 536 293 628 q 367 219 289 332 q 592 147 443 110 q 728 276 657 164 q 829 510 799 389 q 860 553 836 538 q 913 562 885 568 q 956 531 940 556 q 965 479 971 507 q 844 200 931 333 q 631 14 743 44 q 411 13 508 -19 q 251 140 314 46 q 153 539 151 292 q 179 751 154 650 q 251 918 204 851 q 386 1026 310 1001 q 569 992 479 1057 q 678 811 653 931 q 671 626 696 725 q 640 583 664 599 q 588 574 615 568 q 544 605 560 581 q 535 657 528 629 z "},"d":{"ha":1138,"x_min":3,"x_max":1046,"o":"m 458 583 q 431 647 457 611 q 372 700 406 682 q 322 703 350 713 q 254 658 292 692 q 214 618 240 646 q 173 526 193 597 q 146 378 153 456 q 152 241 139 296 q 194 158 165 186 q 268 114 228 129 q 340 103 308 99 q 394 136 372 108 q 439 265 428 179 q 461 569 460 411 q 458 583 460 576 m 625 976 q 624 925 625 956 q 623 909 624 921 q 622 886 622 897 l 622 874 q 617 654 618 735 q 643 226 614 369 q 685 104 658 143 q 719 78 701 78 q 742 89 729 78 q 782 144 763 106 q 854 365 819 217 q 881 479 864 404 q 904 583 896 551 q 935 626 911 611 q 988 633 960 640 q 1031 602 1015 626 q 1039 550 1046 578 q 1015 449 1032 519 q 990 333 999 372 q 906 82 950 168 q 833 -17 874 18 q 714 -61 781 -62 q 568 28 624 -58 q 533 99 549 58 q 504 51 521 72 q 363 -33 449 -19 q 217 -15 293 -44 q 101 56 153 10 q 17 218 39 113 q 7 404 3 301 q 93 725 17 646 q 160 785 122 756 q 254 833 199 814 q 439 822 340 864 q 481 794 461 810 q 483 878 482 829 l 483 889 q 484 913 483 900 q 485 929 485 925 q 486 979 486 958 q 508 1028 488 1008 q 558 1047 529 1049 q 606 1025 586 1046 q 625 976 626 1004 z "},"e":{"ha":1044,"x_min":158,"x_max":949,"o":"m 321 622 q 488 636 426 597 q 554 740 540 668 q 544 863 569 810 q 525 889 535 882 q 511 892 518 893 q 376 785 432 882 q 321 622 339 717 m 307 483 q 344 246 306 349 q 442 117 382 143 q 571 118 508 88 q 692 236 633 150 q 779 419 746 315 q 810 579 810 513 q 830 628 810 608 q 879 649 850 649 q 928 628 908 649 q 949 579 949 608 q 909 369 949 488 q 807 158 869 251 q 633 -6 729 42 q 386 -11 513 -67 q 207 215 264 43 q 171 540 158 363 q 256 853 183 724 q 494 1031 344 1011 q 604 1003 554 1038 q 669 922 646 974 q 690 713 714 826 q 563 518 664 582 q 307 483 458 453 z "},"f":{"ha":711,"x_min":118,"x_max":617,"o":"m 431 349 q 332 335 367 339 q 285 331 307 332 q 356 92 314 154 q 365 40 371 68 q 336 -5 360 11 q 284 -15 313 -21 q 239 14 256 -10 q 170 196 199 75 q 129 467 142 317 q 126 724 118 607 q 168 922 135 856 q 239 992 189 964 q 311 1021 272 1011 q 485 997 410 1044 q 578 875 544 957 q 610 732 601 814 q 614 603 617 669 q 592 554 613 574 q 542 536 571 535 q 493 558 513 538 q 475 608 474 579 q 449 824 481 740 q 408 881 432 865 q 344 885 385 896 q 307 871 324 881 q 294 863 299 867 q 292 860 293 861 q 265 713 271 818 q 268 478 258 607 q 268 468 268 472 q 408 485 314 471 q 460 473 438 490 q 488 427 483 456 q 476 376 493 399 q 431 349 458 353 z "},"g":{"ha":1053,"x_min":51,"x_max":963,"o":"m 339 94 q 346 90 342 92 q 378 85 360 85 q 464 103 424 82 q 515 158 503 124 q 522 181 518 169 q 515 180 518 181 q 508 178 511 179 q 502 177 504 178 q 499 176 500 176 l 497 176 q 390 146 422 158 q 349 117 357 132 q 340 100 343 107 q 339 94 339 97 m 650 904 q 672 790 668 885 q 678 590 675 696 q 681 441 681 485 q 681 374 682 397 q 726 400 706 386 q 822 518 793 444 q 858 556 832 544 q 912 558 885 568 q 951 521 939 547 q 951 468 963 494 q 804 285 907 353 q 671 221 749 247 q 646 114 663 164 q 528 -19 617 26 q 371 -54 454 -58 q 228 10 274 -50 q 200 97 199 49 q 229 189 201 142 q 338 274 261 243 q 467 311 381 292 l 472 313 q 483 315 476 314 q 497 318 489 317 q 511 322 504 319 q 522 324 518 324 q 542 328 532 326 q 542 367 542 346 q 542 444 543 393 q 542 497 542 479 q 542 511 542 506 q 427 434 490 461 q 300 408 364 407 q 170 451 225 411 q 94 560 115 490 q 176 907 51 701 q 273 1006 214 967 q 397 1054 332 1046 q 536 1032 472 1064 q 640 932 600 1000 q 650 904 649 919 m 521 863 q 415 915 483 925 q 349 890 381 911 q 296 833 317 868 q 229 685 244 751 q 228 599 217 633 q 304 547 242 549 q 450 617 383 544 q 531 849 531 703 q 521 863 525 854 z "},"h":{"ha":1013,"x_min":68,"x_max":921,"o":"m 235 964 q 231 644 217 851 q 301 747 260 696 q 379 828 342 797 q 450 869 415 858 q 535 867 494 885 q 594 814 571 851 q 621 750 610 789 q 643 597 636 694 q 651 422 647 543 q 658 264 654 314 q 674 142 663 185 q 682 111 678 124 q 690 125 686 117 q 725 189 707 149 q 779 329 760 263 q 813 371 788 357 q 865 376 838 385 q 907 343 893 368 q 913 290 921 318 q 851 131 890 214 q 808 50 829 82 q 744 -17 776 1 q 597 -7 661 -62 q 538 110 557 29 q 519 254 525 165 q 513 418 515 307 q 506 588 508 535 q 488 713 499 669 q 481 731 485 724 q 468 721 475 726 q 389 633 432 690 q 332 536 346 575 q 301 326 307 468 q 333 64 294 157 q 339 36 339 50 q 328 -2 339 15 q 297 -28 317 -19 q 269 -33 283 -33 q 231 -22 249 -33 q 206 8 214 -11 q 203 14 204 11 q 108 468 146 156 q 99 986 68 806 q 126 1032 103 1015 q 178 1044 150 1049 q 224 1015 207 1039 q 235 964 240 992 z "},"i":{"ha":731,"x_min":117,"x_max":639,"o":"m 251 890 q 199 888 225 879 q 156 918 174 897 q 128 963 138 939 q 122 1013 117 988 q 142 1056 126 1038 q 180 1083 158 1075 q 224 1088 201 1092 q 258 1071 242 1083 q 275 1054 268 1064 q 301 1007 296 1031 q 301 950 307 972 q 288 919 297 935 q 251 890 279 903 m 286 781 q 269 614 276 721 q 264 364 260 476 q 297 153 271 225 q 324 107 310 119 q 335 103 328 103 q 353 113 343 103 q 388 160 371 128 q 456 338 419 217 q 477 418 460 354 q 497 490 494 482 q 531 531 506 517 q 583 538 556 546 q 625 504 611 529 q 631 451 639 479 q 611 380 629 444 q 589 299 593 315 q 510 92 549 164 q 446 8 481 39 q 343 -36 399 -32 q 228 7 278 -40 q 167 104 190 42 q 126 357 133 197 q 131 624 121 479 q 150 804 139 739 q 178 849 156 833 q 230 860 201 865 q 275 832 258 856 q 286 781 292 808 z "},"j":{"ha":700,"x_min":97,"x_max":607,"o":"m 372 1042 q 408 1005 382 1019 q 460 992 433 990 q 494 1004 478 993 q 515 1024 506 1011 q 460 1232 596 1167 q 368 1181 411 1222 q 372 1042 347 1092 m 547 892 q 556 825 547 879 q 560 798 556 822 q 564 767 564 774 q 575 699 571 729 q 599 475 592 572 q 600 276 607 363 q 565 101 593 171 q 446 -19 525 7 q 253 7 363 -47 q 129 132 168 50 q 100 286 97 199 q 175 550 104 419 q 244 578 189 575 q 297 483 299 581 q 239 282 243 382 q 314 132 236 171 q 372 111 347 115 q 401 113 390 108 q 438 156 422 119 q 460 465 475 247 q 438 679 454 557 q 428 747 432 711 q 423 777 426 753 q 418 804 419 801 q 408 886 410 867 q 449 936 407 915 q 547 892 490 957 z "},"k":{"ha":936,"x_min":46,"x_max":846,"o":"m 631 919 q 464 629 579 753 q 321 510 400 561 q 315 507 318 508 q 407 351 351 442 q 560 122 503 196 q 604 156 579 132 q 667 232 639 189 q 704 310 694 275 q 736 352 711 338 q 789 359 761 367 q 831 326 817 351 q 838 274 846 301 q 786 161 824 221 q 701 56 749 101 q 599 -12 649 6 q 531 -19 564 -25 q 463 19 489 -12 q 289 279 403 94 q 221 392 250 342 q 263 61 233 232 q 250 10 267 33 q 205 -19 233 -14 q 153 -7 176 -24 q 125 38 129 10 q 86 961 46 513 q 111 1008 89 989 q 162 1024 133 1026 q 208 999 190 1021 q 224 949 226 976 q 211 607 208 775 q 246 628 231 618 q 363 724 310 669 q 497 961 456 824 q 531 1001 506 988 q 585 1006 557 1015 q 626 972 613 997 q 631 919 639 947 z "},"l":{"ha":743,"x_min":107,"x_max":653,"o":"m 256 961 q 254 919 256 950 l 253 892 q 253 857 253 872 q 253 514 246 657 q 299 208 263 315 q 340 132 318 154 q 364 118 353 118 l 365 118 q 376 129 369 122 q 417 196 394 151 q 511 449 456 275 q 547 488 521 475 q 599 493 572 501 q 640 459 626 485 q 644 406 653 433 q 542 136 585 222 q 481 38 513 74 q 382 -19 436 -14 q 240 35 300 -28 q 168 164 196 81 q 114 507 125 289 q 114 861 107 657 q 115 896 114 876 q 115 925 115 921 q 117 961 117 953 q 137 1010 117 990 q 186 1031 157 1031 q 235 1010 215 1031 q 256 961 256 990 z "},"m":{"ha":1482,"x_min":54,"x_max":1390,"o":"m 194 971 q 200 696 200 882 q 200 692 200 694 q 200 688 200 689 q 260 872 226 797 q 326 974 290 935 q 433 1032 374 1022 q 553 989 503 1044 q 606 888 585 953 q 629 786 619 844 q 663 882 644 840 q 707 964 683 932 q 778 1025 739 1008 q 950 1014 879 1068 q 1024 874 1004 972 q 1038 696 1038 806 q 1032 496 1039 628 q 1032 481 1032 490 q 1025 310 1026 364 q 1031 171 1024 224 q 1049 96 1036 117 l 1050 96 q 1057 100 1053 97 q 1089 136 1072 111 q 1161 278 1124 186 q 1218 439 1190 350 q 1249 544 1238 499 q 1280 588 1256 572 q 1333 596 1304 603 q 1376 564 1361 589 q 1383 511 1390 539 q 1351 399 1371 461 q 1290 225 1322 303 q 1203 57 1247 119 q 1143 -8 1174 15 q 1057 -44 1103 -42 q 931 25 975 -50 q 892 156 901 71 q 886 313 885 217 q 893 486 888 368 q 893 503 893 497 q 899 696 900 631 q 888 846 899 792 q 875 890 882 874 q 865 904 869 901 q 861 906 864 904 q 833 897 851 906 q 829 894 832 897 q 819 882 825 890 q 790 828 804 863 q 738 650 761 761 q 689 319 696 464 q 692 235 688 296 q 694 196 693 210 q 693 110 696 144 q 672 19 689 57 q 660 1 668 10 q 621 -22 644 -17 q 569 -11 593 -26 q 550 7 558 -4 q 539 32 543 18 q 533 57 536 42 q 531 78 532 65 q 528 97 529 82 q 526 113 526 111 q 519 225 519 151 l 519 226 q 517 300 519 276 q 514 388 515 321 q 507 622 511 544 q 474 846 497 771 q 450 894 463 881 q 426 876 440 890 q 386 813 406 856 q 321 583 347 729 q 289 322 300 467 q 281 143 281 218 l 281 142 l 281 140 q 281 138 281 139 q 281 133 281 136 l 281 131 q 282 122 282 126 q 282 99 282 108 q 282 60 283 75 q 278 36 281 47 q 269 17 275 25 q 231 -15 256 -7 q 176 -12 203 -25 q 142 31 150 1 l 140 35 q 138 46 139 39 l 126 82 l 117 117 l 113 129 q 111 133 111 132 q 111 135 111 133 q 72 364 83 236 q 63 594 63 458 q 61 696 61 628 q 56 963 61 876 q 73 1013 54 990 q 120 1036 92 1035 q 171 1019 149 1038 q 194 971 193 1000 z "},"n":{"ha":1151,"x_min":71,"x_max":1060,"o":"m 754 111 q 764 125 758 117 q 794 182 779 146 q 918 614 868 356 q 947 658 924 642 q 999 668 971 674 q 1044 639 1028 663 q 1054 588 1060 615 q 922 129 1001 315 q 822 -11 879 25 q 747 -33 785 -35 q 675 -4 708 -31 q 606 94 632 28 q 574 242 579 161 q 572 300 572 261 q 574 336 572 314 q 574 349 574 339 q 574 367 574 358 q 575 376 575 375 q 576 560 579 490 q 553 758 574 688 q 526 814 542 794 q 507 829 517 826 q 375 800 426 851 q 289 638 326 753 q 269 576 279 611 l 251 515 q 240 324 235 456 q 246 228 242 288 q 254 85 254 118 q 249 25 254 49 q 235 -10 244 6 q 182 -44 215 -39 q 121 -31 149 -51 q 96 4 104 -17 q 88 49 90 21 q 83 168 85 76 q 81 393 82 310 q 78 639 79 482 q 76 778 76 731 q 72 919 75 854 q 90 969 71 949 q 138 992 110 990 q 188 974 167 993 q 211 925 210 954 q 214 815 213 872 q 276 899 243 864 q 543 964 385 1006 q 638 897 599 949 q 685 799 667 858 q 715 564 711 710 q 714 371 718 490 q 711 251 710 269 q 732 153 715 197 q 754 111 742 126 z "},"o":{"ha":1194,"x_min":174,"x_max":1065,"o":"m 646 631 q 560 801 606 740 q 449 890 515 861 q 350 728 382 854 q 339 424 315 589 q 433 165 364 258 q 578 104 496 83 q 679 196 649 121 q 700 397 711 274 q 646 631 689 514 m 744 756 q 838 410 822 590 q 807 143 851 253 q 611 -32 750 4 q 453 -23 528 -53 q 322 82 379 7 q 201 404 231 203 q 215 761 174 597 q 396 1018 265 958 q 468 1010 435 1036 q 492 1014 479 1014 l 499 1014 l 506 1014 q 525 1011 515 1014 q 574 993 549 1004 q 626 968 597 983 q 653 954 638 961 q 667 946 656 951 l 678 940 q 756 900 726 913 q 831 876 796 882 q 1022 894 928 853 q 1063 867 1060 883 q 1058 813 1065 850 q 1026 764 1050 775 q 806 740 921 714 q 744 756 775 747 z "},"p":{"ha":846,"x_min":104,"x_max":774,"o":"m 296 261 q 326 61 307 151 q 328 47 328 54 q 313 3 328 22 q 272 -21 297 -15 q 258 -22 265 -22 q 215 -7 233 -22 q 190 33 196 8 q 133 481 156 203 q 106 978 118 676 q 124 1028 104 1007 q 172 1050 143 1049 q 222 1032 201 1051 q 244 983 243 1013 q 247 919 246 950 q 507 1039 342 1054 q 644 965 586 1032 q 713 849 688 918 q 735 510 774 678 q 610 268 701 368 q 418 169 514 164 q 315 225 353 172 q 296 261 304 242 m 426 308 q 454 318 438 310 q 508 363 481 333 q 600 542 575 435 q 582 801 629 669 q 542 872 565 846 q 493 900 519 899 q 357 836 406 908 q 292 606 307 760 q 288 367 281 500 q 313 399 296 386 q 353 411 331 411 q 402 391 382 411 q 422 342 422 371 q 425 314 422 325 q 426 308 426 311 z "},"q":{"ha":1065,"x_min":144,"x_max":974,"o":"m 713 36 q 461 -40 611 -71 q 314 26 371 -22 q 215 165 257 75 q 153 396 168 267 q 144 622 144 474 q 197 865 144 764 q 381 1026 260 985 q 392 1029 386 1028 q 428 1039 408 1039 q 596 989 519 1039 q 728 846 672 939 q 832 471 821 689 q 786 156 842 290 q 864 94 828 119 q 901 71 885 79 q 913 64 907 67 l 914 64 q 958 33 943 57 q 967 -19 974 8 q 935 -62 960 -47 q 883 -72 911 -78 q 783 -19 846 -64 q 713 36 750 6 m 426 894 q 321 801 357 871 q 283 622 283 729 q 292 413 283 482 q 340 224 304 304 q 401 135 369 163 q 489 96 433 107 q 610 131 563 81 q 488 289 519 224 q 485 342 475 315 q 520 382 494 369 q 573 385 546 394 q 613 350 600 375 q 676 264 628 317 q 693 464 699 354 q 608 775 685 647 q 438 900 538 894 q 426 894 432 897 z "},"r":{"ha":846,"x_min":97,"x_max":756,"o":"m 239 961 q 239 844 239 924 q 238 833 238 839 q 346 956 282 900 q 572 1019 465 1058 q 657 958 619 1003 q 707 871 686 922 q 749 676 742 786 q 732 504 756 567 q 695 465 721 476 q 642 463 669 453 q 603 500 615 474 q 601 553 592 526 q 610 665 615 588 q 578 819 604 753 q 525 890 553 879 q 499 889 514 893 q 438 850 472 881 q 303 651 342 767 q 275 314 260 519 q 299 206 276 289 q 304 183 300 194 q 317 136 310 163 q 322 115 318 131 q 328 96 326 99 q 335 69 332 76 q 336 64 335 67 q 338 50 338 57 q 336 36 338 43 q 331 21 335 31 q 324 7 328 14 q 308 -8 318 0 q 296 -15 303 -11 q 283 -19 290 -18 q 269 -21 276 -21 q 257 -21 263 -21 q 239 -15 246 -18 q 228 -8 232 -11 q 211 8 218 -1 q 204 18 207 13 q 203 22 204 21 q 128 289 153 140 q 101 567 107 411 q 100 846 97 661 q 100 961 100 924 q 120 1010 100 990 q 169 1031 140 1031 q 219 1010 199 1031 q 239 961 239 990 z "},"s":{"ha":903,"x_min":72,"x_max":847,"o":"m 546 672 q 521 815 565 761 q 410 874 482 865 q 282 842 336 882 q 215 708 222 797 q 268 622 213 657 q 350 585 299 604 q 457 551 383 574 q 461 550 458 551 q 593 508 550 524 q 714 443 668 479 q 788 161 847 339 q 632 -19 744 32 q 425 -32 533 -64 q 267 93 315 1 q 271 319 211 199 q 312 353 285 344 q 365 350 339 363 q 399 310 390 338 q 396 257 408 282 q 389 158 367 200 q 465 101 411 118 q 575 107 524 83 q 657 206 632 133 q 664 286 674 256 q 629 333 657 313 q 543 378 599 357 q 422 417 504 393 q 418 418 419 418 q 303 454 340 442 q 194 504 238 478 q 107 589 138 540 q 78 718 72 647 q 199 953 88 871 q 425 1011 297 1025 q 629 903 554 997 q 682 644 714 797 q 652 600 676 615 q 599 590 628 585 q 556 620 571 596 q 546 672 540 644 z "},"t":{"ha":981,"x_min":153,"x_max":888,"o":"m 583 789 q 532 783 567 788 q 467 775 489 778 q 467 501 463 626 q 518 142 475 249 q 539 103 528 117 q 546 96 543 97 q 549 94 547 94 q 554 96 550 94 q 590 119 569 100 q 689 331 642 164 q 746 617 719 442 q 774 661 751 644 q 826 674 797 678 q 871 647 854 669 q 883 594 888 624 q 822 293 856 413 q 767 138 797 201 q 682 14 729 54 q 597 -36 638 -24 q 501 -36 547 -53 q 431 17 461 -22 q 389 90 407 46 q 328 497 338 219 q 328 769 324 622 q 206 793 263 774 q 166 827 179 801 q 162 880 153 853 q 197 920 171 907 q 250 924 222 933 q 333 908 288 911 l 336 972 q 356 1022 336 1001 q 406 1042 376 1042 q 455 1022 435 1042 q 475 972 475 1001 q 472 915 475 968 q 514 921 488 918 q 567 928 550 925 q 618 913 596 931 q 644 866 640 894 q 629 815 647 838 q 583 789 611 793 z "},"u":{"ha":1228,"x_min":122,"x_max":1135,"o":"m 264 871 q 318 221 263 385 q 371 136 340 158 q 443 121 396 119 q 460 129 450 122 q 490 168 475 140 q 554 347 525 229 q 625 867 599 533 l 625 872 q 645 921 625 900 q 694 942 665 942 q 743 921 722 942 q 764 872 764 900 l 764 865 l 764 863 q 763 739 764 814 q 761 621 761 654 q 769 401 763 513 q 799 183 778 264 q 829 104 813 129 q 835 96 832 99 l 836 94 q 847 103 840 97 q 883 154 865 119 q 946 350 918 222 q 975 501 961 415 q 985 564 978 515 q 993 617 993 613 q 1021 663 997 646 q 1073 674 1044 679 q 1118 646 1101 669 q 1131 594 1135 622 q 1122 542 1129 590 q 1113 479 1114 494 q 1082 319 1097 389 q 1007 90 1049 175 q 942 1 978 33 q 835 -44 893 -43 q 760 -22 794 -44 q 713 28 733 -4 q 664 150 683 74 q 654 194 658 171 q 610 99 633 139 q 546 21 582 49 q 449 -17 501 -15 q 287 26 351 -21 q 188 176 222 72 q 125 872 122 361 q 145 922 125 901 q 194 942 165 942 q 244 921 224 942 q 264 871 264 900 z "},"v":{"ha":1272,"x_min":49,"x_max":1163,"o":"m 190 971 q 361 522 229 847 q 481 238 424 368 q 561 496 510 329 q 565 510 564 504 q 589 583 568 515 q 631 718 610 650 q 658 810 651 786 q 690 908 679 876 q 700 939 697 928 q 704 950 703 946 q 707 954 706 951 q 751 994 719 985 q 769 994 763 994 q 804 986 788 994 q 822 975 814 982 q 839 958 831 968 q 850 946 844 953 q 854 939 853 942 q 867 900 867 921 q 922 685 867 749 q 957 663 938 667 q 990 661 976 658 q 1019 675 1004 664 q 1044 694 1035 686 q 1056 705 1053 703 q 1070 719 1058 707 q 1122 727 1082 732 q 1158 669 1163 722 q 1138 597 1154 615 q 1107 567 1121 578 q 1101 563 1104 565 q 1042 524 1061 532 q 911 526 978 500 q 817 593 857 547 q 764 682 785 631 q 738 595 753 646 q 711 510 722 544 q 699 468 700 475 q 694 454 694 456 q 600 156 632 254 q 567 58 578 92 q 553 28 558 39 q 542 8 547 17 q 531 -1 536 3 q 503 -15 518 -11 q 450 -7 475 -22 q 424 24 432 4 q 232 469 358 158 q 57 929 99 800 q 62 983 49 957 q 103 1017 75 1008 q 156 1012 131 1025 q 190 971 181 999 z "},"w":{"ha":1356,"x_min":85,"x_max":1264,"o":"m 236 925 q 235 885 236 910 l 235 881 q 234 871 235 876 q 233 860 233 865 q 233 849 233 854 q 232 840 232 843 q 229 540 224 654 q 346 140 243 243 q 362 126 356 131 q 372 119 368 122 q 375 117 374 118 q 403 161 389 128 q 440 300 424 213 q 478 915 478 513 q 478 933 478 924 q 498 983 478 963 q 547 1003 518 1003 q 597 983 576 1003 q 617 933 617 963 q 617 914 617 924 q 650 393 618 713 q 658 314 653 369 q 667 238 664 265 q 688 173 669 204 q 731 124 706 142 q 765 111 750 111 q 786 124 776 111 q 874 482 871 221 q 861 750 875 589 q 857 797 861 753 q 851 851 853 842 q 847 931 847 904 q 847 933 847 932 q 847 939 847 936 q 867 988 847 968 q 917 1008 888 1008 q 966 988 946 1008 q 986 939 986 968 q 999 865 986 911 q 1039 767 1014 810 q 1096 706 1065 722 q 1167 701 1126 689 q 1220 698 1194 711 q 1255 658 1246 685 q 1251 605 1264 631 q 1211 571 1238 579 q 1031 583 1114 538 q 1011 594 1021 588 q 1013 481 1014 535 q 989 240 1011 342 q 892 32 958 108 q 769 -28 842 -25 q 653 10 710 -29 q 546 149 579 60 q 463 8 514 50 q 349 -19 411 -33 q 274 18 311 -11 q 249 43 263 28 q 129 267 168 122 q 90 533 99 378 q 93 847 85 654 q 94 856 94 850 q 94 867 94 861 q 95 878 94 872 q 96 887 96 883 q 96 892 96 890 q 97 931 97 915 q 120 979 99 960 q 170 997 142 999 q 218 975 199 996 q 236 925 238 954 z "},"x":{"ha":828,"x_min":54,"x_max":733,"o":"m 669 893 q 582 717 643 842 q 522 595 572 697 q 463 474 472 493 q 461 469 461 472 q 439 426 450 447 q 704 110 568 218 q 731 63 728 92 q 715 13 733 35 q 669 -13 697 -10 q 618 1 640 -17 q 368 282 489 104 q 231 10 254 51 q 189 -23 217 -15 q 136 -17 161 -31 q 103 25 111 -3 q 110 78 94 53 q 281 419 133 122 q 274 433 278 426 q 63 915 142 667 q 67 969 54 943 q 108 1003 81 994 q 160 998 135 1011 q 194 958 186 985 q 356 572 257 764 q 391 644 367 594 q 433 728 415 693 q 457 778 450 764 q 544 956 519 903 q 585 990 557 981 q 638 986 613 999 q 673 946 664 974 q 669 893 682 918 z "},"y":{"ha":1072,"x_min":89,"x_max":981,"o":"m 390 122 q 393 121 392 122 q 418 121 404 119 q 493 158 458 126 q 554 260 535 197 q 544 256 547 257 q 444 200 475 224 q 393 133 407 172 q 390 122 390 128 m 253 926 q 288 526 231 642 q 324 483 306 492 q 358 486 338 478 q 425 538 390 499 q 488 632 460 576 q 550 913 553 763 q 550 922 550 918 q 550 925 550 924 q 568 975 549 954 q 617 997 588 996 q 667 979 646 999 q 689 931 688 960 q 689 911 689 921 q 690 629 696 688 q 689 569 689 604 q 693 493 689 542 q 790 575 750 533 q 840 647 829 617 q 874 688 849 675 q 927 692 900 701 q 967 658 954 683 q 972 604 981 632 q 849 439 946 525 q 703 335 785 382 q 689 229 703 276 q 586 56 660 122 q 438 -17 519 -4 q 293 22 347 -29 q 253 94 261 51 q 263 183 246 138 q 360 311 292 258 q 488 382 403 344 q 512 393 490 383 q 539 406 533 403 q 561 415 551 411 q 557 453 560 428 q 556 478 556 467 q 408 357 488 388 q 269 356 335 328 q 164 464 203 385 q 114 938 89 614 q 138 984 117 965 q 188 1001 160 1003 q 235 976 217 999 q 253 926 254 954 z "},"z":{"ha":861,"x_min":21,"x_max":765,"o":"m 90 1001 q 274 996 150 1001 q 329 993 311 993 q 578 994 489 986 q 581 996 579 994 q 589 998 582 996 q 597 1000 596 1000 q 606 1003 601 1001 q 637 1010 624 1008 q 661 1011 650 1013 q 681 1007 671 1010 q 708 990 696 1001 q 728 951 724 974 q 728 925 731 939 q 721 901 726 914 q 708 883 715 893 q 704 878 706 881 q 696 869 700 874 q 694 867 696 868 q 633 790 674 840 l 632 790 q 526 651 557 699 q 461 531 496 607 q 396 379 439 482 q 392 371 394 375 q 294 153 331 219 q 286 138 290 144 q 404 128 332 136 q 439 125 417 126 q 586 113 546 113 q 633 117 615 113 q 644 121 640 119 q 649 124 647 122 q 699 141 669 143 q 747 117 728 139 q 764 67 765 96 q 740 19 763 39 q 665 -18 711 -7 q 588 -26 632 -26 q 422 -14 539 -26 q 389 -10 401 -11 q 251 -1 300 0 q 169 -21 194 -4 q 117 -31 144 -37 q 72 -1 89 -25 q 72 1 72 0 q 69 3 71 1 q 58 55 53 26 q 86 100 63 83 q 172 217 125 128 q 264 424 204 279 q 265 428 264 425 q 268 432 267 431 q 335 589 311 538 q 410 729 375 675 q 503 851 443 778 q 324 854 432 849 q 268 857 304 854 q 90 863 147 863 q 41 883 61 863 q 21 932 21 903 q 41 981 21 961 q 90 1001 61 1001 z "},".":{"ha":276,"x_min":-4,"x_max":181,"o":"m 158 13 q 140 -19 154 -6 q 74 -37 113 -47 q 42 -19 56 -33 q 25 1 32 -11 q 11 32 18 14 q 1 111 -4 78 q 11 144 3 129 q 53 179 26 169 q 103 182 76 189 q 133 168 118 178 q 172 119 160 151 q 181 72 181 97 q 163 17 179 40 q 158 13 161 14 z "},",":{"ha":292,"x_min":-6,"x_max":200,"o":"m 131 160 q 194 1 186 90 q 181 -97 200 -53 q 101 -181 157 -153 q 48 -184 75 -193 q 8 -149 21 -175 q 3 -97 -6 -124 q 39 -57 13 -69 q 53 -43 50 -51 q 56 -11 58 -31 q 22 74 51 36 q 8 126 4 97 q 33 172 11 154 q 84 186 56 189 q 131 160 113 183 z "},"!":{"ha":833,"x_min":36,"x_max":214,"o":"m 213 975 q 206 833 211 929 q 197 681 200 732 q 204 385 190 506 q 189 334 207 357 q 142 308 171 311 q 92 324 114 306 q 67 369 69 342 q 58 686 51 500 q 67 840 61 739 q 74 981 72 936 q 97 1029 75 1010 q 147 1047 118 1049 q 194 1025 175 1046 q 213 975 214 1004 m 203 125 q 203 81 206 99 q 188 32 200 51 q 148 2 172 10 q 99 4 124 -6 q 58 39 74 14 q 43 113 36 74 q 100 181 53 164 q 128 188 113 186 q 178 172 156 190 q 203 125 200 154 z "},"?":{"ha":726,"x_min":-3,"x_max":642,"o":"m 235 119 q 239 128 236 124 q 261 157 247 146 q 332 168 293 183 q 369 138 356 160 q 383 101 379 122 q 382 38 389 68 q 353 -11 375 7 q 268 -22 315 -43 q 236 4 249 -14 q 222 31 226 15 q 215 69 215 49 q 235 119 215 99 m 0 711 q 49 898 -3 811 q 189 1029 101 985 q 374 1054 281 1075 q 546 932 476 1031 q 593 661 642 797 q 535 557 575 611 q 461 472 508 522 q 445 455 458 469 q 428 438 432 440 q 399 406 411 418 q 360 353 371 374 q 354 314 347 329 q 353 261 364 288 q 315 224 342 235 q 262 224 289 213 q 225 263 235 236 q 238 417 194 338 q 294 497 256 453 q 328 533 307 513 q 344 551 331 536 q 360 568 358 565 q 463 708 443 656 q 468 771 474 740 q 432 851 463 810 q 343 918 393 907 q 251 904 299 929 q 169 826 200 879 q 139 715 138 774 q 120 665 140 686 q 72 644 100 644 q 22 663 43 643 q 0 711 1 682 z "}}}
